# xmcd
#
# Track frame offsets: 
#        150
#        13399
#        26415
#        39613
#        52521
#        66571
#        80694
#        94049
#        105785
#        120196
#        133229
#        146768
#        160482
#        172941
#
# Disc length: 2460 seconds
#
# Revision: 4
# Processed by: cddbd v1.5.1PL0 Copyright (c) Steve Scherf et al.
# Submitted via: ExactAudioCopy v0.95a5
#
DISCID=b3099a0e
DTITLE=Various Artist - Sultry Divas (Disk 2 of 2)
DYEAR=1999
DGENRE=Blues
TTITLE0=Rosetta Howard and Harlem Hamfats - Rosetta Blues
TTITLE1=Merline Johnson (the Yas Yas Girl) - Pallet On the Floor
TTITLE2=Trixie Smith - My Daddy Rocks Me
TTITLE3=Blue Lu Barker - New Orleans Blues
TTITLE4=Billie Holiday - Long Gone Blues
TTITLE5=Ida Cox - Last Mile Blues
TTITLE6=Lil Green - Why Don't You Do Right?
TTITLE7=Memphis Minnie - In My Girlish Days
TTITLE8=Wee Bea Booze - See See Rider Blues
TTITLE9=Rosetta Tharpe - I Want a Tall Skinny Papa
TTITLE10=Ada Brown and Fats Waller - That Ain't Right
TTITLE11=Dinah Washington and Lionel Hampton - Salty Papa Blues
TTITLE12=Helen Humes - Be Baba Leba
TTITLE13=Julie Lee - Julia's Blues
EXTD=LABEL =Allegro Corporation\nID =crg212000\nUPC =723723-519221\n
EXTD=COPYRIGHT =1999\n*****\nYEAR: 1997\nID3G: 0
EXTT0=
EXTT1=
EXTT2=
EXTT3=
EXTT4=
EXTT5=
EXTT6=
EXTT7=
EXTT8=
EXTT9=
EXTT10=
EXTT11=
EXTT12=
EXTT13=
PLAYORDER=
